<?xml version="1.0" encoding="utf-8"?>
<svg version="1.1" id="Layer_1" xmlns="http://www.w3.org/2000/svg" xmlns:xlink="http://www.w3.org/1999/xlink" x="0px" y="0px"
	 viewBox="0 0 80 80" style="enable-background:new 0 0 80 80;" xml:space="preserve">
<style type="text/css">

</style>
<path class="st0 wheel-component" d="M40,0C17.9,0,0,17.9,0,40s17.9,40,40,40s40-17.9,40-40S62.1,0,40,0z M40,67.6c-15.3,0-27.6-12.4-27.6-27.6
	c0-15.3,12.4-27.6,27.6-27.6S67.6,24.7,67.6,40S55.3,67.6,40,67.6z"/>
<path class="st0 wheel-component" d="M64.9,38.1c-0.3-4.1-1.6-8-3.7-11.3c-4.2,5.2-10.6,7-14.6,4.1c-4.1-3-4.3-9.6-0.7-15.2C44,15.3,42,15,40,15
	s-4,0.3-5.9,0.7c3.6,5.6,3.4,12.2-0.7,15.2S22.9,32,18.8,26.8c-2.1,3.3-3.4,7.2-3.7,11.3c6.4-1.7,12.7,0.6,14.2,5.3
	c1.6,4.8-2.2,10.3-8.4,12.7c2.6,3,5.9,5.5,9.6,7c0.3-6.6,4.4-11.9,9.5-11.9s9.1,5.3,9.5,11.9c3.7-1.5,7-3.9,9.6-7
	c-6.2-2.4-9.9-7.9-8.4-12.7C52.3,38.7,58.5,36.4,64.9,38.1z M40,48c-4.4,0-8-3.6-8-8s3.6-8,8-8s8,3.6,8,8S44.4,48,40,48z"/>
<circle class="st0 wheel-component" cx="40" cy="40" r="4.9"/>
</svg>
