<?xml version="1.0" encoding="utf-8"?>
<!-- Generator: Adobe Illustrator 19.2.1, SVG Export Plug-In . SVG Version: 6.00 Build 0)  -->
<svg version="1.1" id="Layer_1" xmlns="http://www.w3.org/2000/svg" xmlns:xlink="http://www.w3.org/1999/xlink" x="0px" y="0px"
	 viewBox="0 0 657 45" style="enable-background:new 0 0 657 45;" xml:space="preserve">
<g id="layer1">
	<path d="M-244.5,47.8c-0.9-1.3-7.5-1.6-44.1-2.2l-40.6-0.6c-1.5,0-2.9-1-3.4-2.4l-0.3-0.8c-1.5-4.2-1.4-29.3,0.1-36.7
		c0.9-4.2,1.7-5.8,2.8-5.8c0.9,0,3.5-0.9,5.8-2c4.2-2,5.3-2.1,66.8-1.5c35.7,0.3,63.6,1,65,1.5c1.6,0.6,142.7,1,380.4,1h375.9
		c1.2,0,2.3,0.6,3,1.5l2.5,3.5l2.5,3.5c0.7,1,1.8,1.5,3,1.5h13c16.1,0,16.5-0.1,18-5.7v0c0.4-1.6,1.9-2.8,3.6-2.8h17.1h16.1
		c2.1,0,3.8,1.7,3.7,3.8L646.1,15c-0.3,13.3-0.1,15.4,1.3,15.9c1.2,0.4,1.6,1.9,1.6,5.3c0,5.2-1.3,6.5-7.4,7.7
		c-5.5,1-7.6-1.4-7.6-8.5c0-7.9-1.7-10.1-8-10.1c-4.4,0-5.1,0.4-8.2,3.9c-1.9,2.2-4.4,6-5.7,8.5c-0.8,1.7-1.8,3.3-2.7,4.3
		c-0.6,0.8-2.1,4.5-3.1,4.6c-22,1-297.1-1.3-577.1-1.3c-220.5,0-221.4,0-221.9,2c-0.6,2.1-2.8,2.7-3.8,1c-0.4-0.6-7.7-1-18.5-1
		s-18.1,0.4-18.5,1C-234.5,49.9-243.4,49.5-244.5,47.8z"/>
</g>
</svg>
