<?xml version="1.0" encoding="utf-8"?>
<!-- Generator: Adobe Illustrator 19.2.1, SVG Export Plug-In . SVG Version: 6.00 Build 0)  -->
<svg version="1.1" id="Capa_1" xmlns="http://www.w3.org/2000/svg" xmlns:xlink="http://www.w3.org/1999/xlink" x="0px" y="0px"
	 viewBox="0 0 98.8 98.8" style="enable-background:new 0 0 98.8 98.8;" xml:space="preserve">
<g>
	<g>
		<path d="M13.5,51.5c-4.9,0-8.9,4-8.9,8.9c0,0.3,0,0.5,0,0.8c0.4,4.6,4.2,8.1,8.9,8.1c4.5,0,8.3-3.4,8.8-7.8c0-0.4,0.1-0.7,0.1-1.1
			C22.4,55.5,18.4,51.5,13.5,51.5z M9,57l1.8,1.8c-0.1,0.2-0.3,0.5-0.3,0.8H8C8.1,58.7,8.5,57.8,9,57z M8,61.2h2.6
			c0.1,0.3,0.2,0.5,0.3,0.8L9,63.8C8.5,63,8.1,62.1,8,61.2z M12.7,65.9c-1-0.1-1.8-0.5-2.6-1.1L12,63c0.2,0.1,0.5,0.2,0.8,0.3V65.9z
			 M12.7,54.9v2.6c-0.3,0.1-0.5,0.2-0.8,0.3l-1.8-1.8C10.9,55.4,11.8,55,12.7,54.9L12.7,54.9z M19,59.6h-2.6
			c-0.1-0.3-0.2-0.5-0.3-0.8L18,57C18.5,57.8,18.9,58.7,19,59.6z M14.3,57.4l0-2.6c1,0.1,1.9,0.5,2.6,1.1l-1.8,1.8
			C14.8,57.6,14.5,57.5,14.3,57.4L14.3,57.4z M14.3,65.9v-2.6c0.3-0.1,0.5-0.2,0.8-0.3l1.8,1.8C16.1,65.4,15.2,65.8,14.3,65.9z
			 M17.9,63.8l-1.8-1.8c0.1-0.2,0.2-0.5,0.3-0.8H19C18.9,62.1,18.5,63,17.9,63.8z"/>
		<path d="M79.4,51.5c-4.9,0-8.9,4-8.9,8.9c0,0.3,0,0.5,0,0.8c0.4,4.6,4.2,8.1,8.9,8.1c4.5,0,8.3-3.4,8.8-7.8c0-0.4,0.1-0.7,0.1-1.1
			C88.3,55.5,84.3,51.5,79.4,51.5z M75,57l1.8,1.8c-0.1,0.2-0.3,0.5-0.3,0.8h-2.6C74,58.7,74.4,57.8,75,57z M73.9,61.2h2.6
			c0.1,0.3,0.2,0.5,0.3,0.8L75,63.8C74.4,63,74,62.1,73.9,61.2z M78.6,65.9c-1-0.1-1.8-0.5-2.6-1.1l1.8-1.8c0.2,0.1,0.5,0.2,0.8,0.3
			V65.9z M78.6,54.9v2.6c-0.3,0.1-0.5,0.2-0.8,0.3L76,55.9C76.8,55.4,77.7,55,78.6,54.9L78.6,54.9z M84.9,59.6h-2.6
			c-0.1-0.3-0.2-0.5-0.3-0.8l1.8-1.8C84.4,57.8,84.8,58.7,84.9,59.6z M80.2,57.4l0-2.6c1,0.1,1.9,0.5,2.6,1.1L81,57.7
			C80.7,57.6,80.5,57.5,80.2,57.4L80.2,57.4z M80.2,65.9v-2.6c0.3-0.1,0.5-0.2,0.8-0.3l1.8,1.8C82,65.4,81.2,65.8,80.2,65.9z
			 M83.9,63.8l-1.8-1.8c0.1-0.2,0.2-0.5,0.3-0.8H85C84.8,62.1,84.4,63,83.9,63.8z"/>
		<path d="M97.4,52.9c0,0,0-1.5-0.2-2.9c-0.1-1-0.7-2-1.5-2.6c-6.2-4.8-16.5-5.6-22.2-5.8c-1.2,0-4.6-0.1-4.6-0.1l-8.7-8.5h0.2
			c0.3,0,0.6-0.2,0.7-0.5c0.1-0.3-0.1-0.6-0.3-0.8c-2.7-1.6-4.5-2.1-7.6-2.1c-4.7-0.1-24.5,0-33.1,0c-3,0-4.8,0.6-7.1,2.7
			c-4.9,4.5-8.2,8.9-8.6,9.7c-2,3.8-1.8,7.5-1.8,7.5s-1.6,1-2.2,3.5c-0.8,3.2,1.4,10.3,1.4,10.3h1.3c-0.2-0.6-0.3-1.3-0.4-2
			c0-0.3,0-0.6,0-0.9c0-6.1,4.9-11,11-11s11,4.9,11,11c0,0.4,0,0.9-0.1,1.4c-0.1,0.5-0.2,1-0.3,1.5h44.7c-0.2-0.6-0.3-1.3-0.4-2
			c0-0.3,0-0.6,0-0.9c0-6.1,4.9-11,11-11c6.1,0,11,4.9,11,11c0,0.4,0,0.9-0.1,1.4c-0.1,0.5-0.2,1-0.3,1.5h5.1c1.3,0,2.3-0.9,2.6-2.1
			l1-5.5C98.9,54.6,98.4,53.4,97.4,52.9z M27,32.9l0,8l-15.9-0.2c-0.4,0-0.8-0.2-1-0.6c-0.2-0.4-0.1-0.8,0.1-1.1
			c1.2-1.6,2.9-3.4,5-5.1c0.8-0.6,1.7-0.9,2.7-0.9H27L27,32.9z M31.8,41l-0.6,0v-8h0.6V41z M61.1,41.4c0-0.1,0-0.2,0-0.4
			c0-1.4-1-2.5-2.2-2.5c-1.2,0-2.2,1.1-2.2,2.5c0,0.1,0,0.2,0,0.3L36,41v-8.1h19.6l8.7,8.5L61.1,41.4z"/>
	</g>
</g>
</svg>
