<?xml version="1.0" encoding="utf-8"?>
<!-- Generator: Adobe Illustrator 19.2.1, SVG Export Plug-In . SVG Version: 6.00 Build 0)  -->
<svg version="1.1" id="Capa_1" xmlns="http://www.w3.org/2000/svg" xmlns:xlink="http://www.w3.org/1999/xlink" x="0px" y="0px"
	 viewBox="0 0 98.8 98.8" style="enable-background:new 0 0 98.8 98.8;" xml:space="preserve">
<g>
	<g>
		<path d="M75.2,60.7c0,0.2,0,0.4,0,0.7c0.3,4,3.7,7.1,7.8,7.1c4,0,7.3-3,7.7-6.8c0-0.3,0.1-0.6,0.1-1c0-4.3-3.5-7.8-7.8-7.8
			C78.7,52.9,75.2,56.4,75.2,60.7z M87.8,60.1h-2.2c-0.1-0.2-0.2-0.5-0.3-0.7l1.6-1.6C87.4,58.5,87.7,59.2,87.8,60.1z M86.9,63.7
			l-1.6-1.6c0.1-0.2,0.2-0.4,0.3-0.7h2.3C87.7,62.3,87.4,63,86.9,63.7z M83.7,63.3c0.2-0.1,0.5-0.2,0.7-0.3l1.6,1.6
			c-0.7,0.5-1.4,0.8-2.3,0.9V63.3z M83.7,55.9c0.9,0.1,1.6,0.4,2.3,0.9l-1.6,1.6c-0.2-0.1-0.4-0.2-0.7-0.3V55.9z M82.3,58.1
			c-0.2,0.1-0.5,0.2-0.7,0.3L80,56.8c0.7-0.5,1.4-0.8,2.3-0.9V58.1z M80.1,64.6l1.6-1.6c0.2,0.1,0.4,0.2,0.7,0.3v2.3
			C81.5,65.5,80.7,65.1,80.1,64.6z M78.2,61.4h2.2c0.1,0.2,0.2,0.5,0.3,0.7l-1.6,1.6C78.6,63.1,78.3,62.3,78.2,61.4z M80.4,60.1
			l-2.2,0c0.1-0.8,0.4-1.6,0.9-2.3l1.6,1.6C80.6,59.6,80.5,59.8,80.4,60.1L80.4,60.1z"/>
		<path d="M9.5,60.7c0,0.2,0,0.4,0,0.7c0.3,4,3.7,7.1,7.8,7.1c4,0,7.3-3,7.7-6.8c0-0.3,0.1-0.6,0.1-1c0-4.3-3.5-7.8-7.8-7.8
			C13,52.9,9.5,56.4,9.5,60.7z M22.1,60.1h-2.2c-0.1-0.2-0.2-0.5-0.3-0.7l1.6-1.6C21.7,58.5,22,59.2,22.1,60.1z M21.2,63.7l-1.6-1.6
			c0.1-0.2,0.2-0.4,0.3-0.7h2.3C22,62.3,21.7,63,21.2,63.7z M18,63.3c0.2-0.1,0.5-0.2,0.7-0.3l1.6,1.6c-0.7,0.5-1.4,0.8-2.3,0.9
			V63.3z M18,55.9c0.8,0.1,1.6,0.4,2.3,0.9l-1.6,1.6c-0.2-0.1-0.4-0.2-0.7-0.3C18,58.1,18,55.9,18,55.9z M16.6,58.1
			c-0.2,0.1-0.5,0.2-0.7,0.3l-1.6-1.6c0.7-0.5,1.4-0.8,2.3-0.9V58.1z M14.4,64.6l1.6-1.6c0.2,0.1,0.4,0.2,0.7,0.3v2.3
			C15.8,65.5,15,65.1,14.4,64.6z M12.4,61.4h2.2c0.1,0.2,0.2,0.5,0.3,0.7l-1.6,1.6C12.9,63.1,12.6,62.3,12.4,61.4z M14.7,60.1
			l-2.2,0c0.1-0.8,0.4-1.6,0.9-2.3l1.6,1.6C14.8,59.6,14.8,59.8,14.7,60.1L14.7,60.1z"/>
		<path d="M0,52.1l0.1,1.4c0.1,3.2,1.9,6.1,4.7,7.6l2.7,1.5l0.6,0C8,62.3,8,61.9,8,61.5c0-0.3,0-0.5,0-0.8c0-5.2,4.2-9.4,9.4-9.4
			c5.2,0,9.4,4.2,9.4,9.4c0,0.4,0,0.8-0.1,1.2c0,0.2-0.1,0.4-0.1,0.7l47.3-0.1c-0.1-0.3-0.1-0.6-0.1-0.9c0-0.3,0-0.5,0-0.8
			c0-5.2,4.2-9.4,9.4-9.4c5.2,0,9.4,4.2,9.4,9.4c0,0.4,0,0.8-0.1,1.2c0,0.1,0,0.2,0,0.3l1.6-0.4c3.1-0.7,5.2-3.6,4.9-6.8
			c-0.2-2.3-0.8-4.8-2.3-6.7c-4.2-5.5-21.9-7.8-21.9-7.8s-10.2-5.4-20.2-8.1c-16.2-4.4-36.6-1.1-43.2,0.1c-1.3,0.2-2.2,1.3-2.2,2.6
			v0l-5.5,6.1c-0.8,0.9-1.2,2-1.2,3.2l0,4.5l-1.5,1.4C0.2,50.9,0,51.5,0,52.1z M64.6,44.1l-29.4-2.3v-8.5
			c18.3-0.6,29.3,5.1,29.3,5.1l0.7,2.9C64.4,42.2,64.6,44.1,64.6,44.1z M16.4,38.3c-0.4-0.4-0.5-1-0.3-1.5c0.2-0.5,0.6-0.9,1.1-1.1
			c5.3-1.3,10.2-2,14.8-2.3v8.1l-13.8-1.1L16.4,38.3z"/>
	</g>
</g>
</svg>
