<?xml version="1.0" encoding="utf-8"?>
<!-- Generator: Adobe Illustrator 19.2.1, SVG Export Plug-In . SVG Version: 6.00 Build 0)  -->
<svg version="1.1" id="Capa_1" xmlns="http://www.w3.org/2000/svg" xmlns:xlink="http://www.w3.org/1999/xlink" x="0px" y="0px"
	 viewBox="0 0 99.4 99.4" style="enable-background:new 0 0 99.4 99.4;" xml:space="preserve">
<g>
	<g>
		<path d="M74.9,57.2c0,0.2,0,0.4,0,0.6c0.3,3.8,3.5,6.8,7.4,6.8c3.8,0,6.9-2.8,7.4-6.5c0-0.3,0.1-0.6,0.1-0.9
			c0-4.1-3.3-7.5-7.5-7.5C78.3,49.7,74.9,53,74.9,57.2z M87,56.5h-2.1c-0.1-0.2-0.2-0.5-0.3-0.7l1.5-1.5C86.6,55,86.9,55.7,87,56.5z
			 M86.1,60l-1.5-1.5c0.1-0.2,0.2-0.4,0.3-0.6H87C86.9,58.6,86.6,59.4,86.1,60z M83,59.6c0.2-0.1,0.4-0.1,0.6-0.3l1.5,1.5
			c-0.6,0.5-1.4,0.8-2.2,0.9V59.6z M83,52.5c0.8,0.1,1.6,0.4,2.2,0.9l-1.5,1.5c-0.2-0.1-0.4-0.2-0.7-0.3V52.5z M81.7,54.7
			c-0.2,0.1-0.5,0.2-0.7,0.3l-1.5-1.5c0.6-0.5,1.4-0.8,2.2-0.9V54.7z M79.6,60.9l1.5-1.5c0.2,0.1,0.4,0.2,0.6,0.3v2.2
			C80.9,61.7,80.2,61.4,79.6,60.9z M77.8,57.8h2.1c0.1,0.2,0.2,0.4,0.3,0.6L78.6,60C78.2,59.4,77.9,58.6,77.8,57.8z M79.9,56.5
			l-2.1,0c0.1-0.8,0.4-1.6,0.9-2.2l1.5,1.5C80,56.1,80,56.3,79.9,56.5L79.9,56.5z"/>
		<path d="M13.3,57.2c0,0.2,0,0.4,0,0.6c0.3,3.8,3.5,6.8,7.4,6.8c3.8,0,6.9-2.8,7.4-6.5c0-0.3,0.1-0.6,0.1-0.9
			c0-4.1-3.3-7.4-7.4-7.4C16.7,49.8,13.3,53.1,13.3,57.2z M25.4,56.6h-2.1c-0.1-0.2-0.2-0.5-0.3-0.7l1.5-1.5
			C25,55,25.3,55.7,25.4,56.6z M24.5,60L23,58.5c0.1-0.2,0.2-0.4,0.3-0.6h2.2C25.3,58.6,25,59.4,24.5,60z M21.4,61.8v-2.1
			c0.2-0.1,0.4-0.1,0.6-0.3l1.5,1.5C22.9,61.4,22.2,61.7,21.4,61.8L21.4,61.8z M21.4,52.6c0.8,0.1,1.5,0.4,2.2,0.9L22.1,55
			c-0.2-0.1-0.4-0.2-0.7-0.3V52.6z M20.1,54.7c-0.2,0.1-0.5,0.2-0.7,0.3L18,53.5c0.6-0.5,1.4-0.8,2.2-0.9V54.7z M18,60.9l1.5-1.5
			c0.2,0.1,0.4,0.2,0.6,0.3v2.1C19.3,61.7,18.6,61.4,18,60.9z M16.2,57.8h2.1c0.1,0.2,0.2,0.4,0.3,0.6L17,60
			C16.6,59.4,16.3,58.6,16.2,57.8z M16.2,56.6c0.1-0.8,0.4-1.5,0.9-2.2l1.5,1.5c-0.1,0.2-0.2,0.4-0.3,0.7H16.2z"/>
		<path d="M0,53.2c0,1,0.2,1.9,0.7,2.7l0.7,1.2c0.6,1.1,1.7,1.8,2.9,1.9l7,0.9l1,0.1c-0.2-0.7-0.4-1.4-0.5-2.1c0-0.3,0-0.5,0-0.8
			c0-5,4-9,9-9s9,4,9,9c0,0.4,0,0.7-0.1,1.1c-0.1,1-0.4,1.9-0.8,2.7l0.4,0h45c-0.5-1-0.8-2-0.9-3.1c0-0.3,0-0.5,0-0.8c0-5,4-9,9-9
			c5,0,9,4,9,9c0,0.4,0,0.7-0.1,1.1c-0.1,1-0.4,1.9-0.8,2.8l6.5-0.7c1-0.1,1.8-0.9,2-1.8c0.1-0.6,0.3-1.4,0.3-2.3
			c0.4-4.3-2.2-8.4-6.3-9.9C82.6,42.6,68,43,68,43s-9-4.6-12.2-5.7c-15.4-5.7-33.5-0.5-43.3,4.7c-2.8,0.1-5.7,0.3-7.5,0.5
			c-0.9,0.1-1.7,0.7-2.1,1.6l-1.8,4.6l-0.4,0.6C0.4,50.1,0.1,51,0,52L0,53.2z M23,40.9c6.2-3.2,10.7-3.5,14.4-3.9
			c13.5-1.4,22.2,4.2,22.2,4.2c-0.9,1-0.7,1.8-0.7,1.8H24.8L23,40.9z"/>
	</g>
</g>
</svg>
