<?xml version="1.0" encoding="utf-8"?>
<!-- Generator: Adobe Illustrator 19.2.1, SVG Export Plug-In . SVG Version: 6.00 Build 0)  -->
<svg version="1.1" id="Capa_1" xmlns="http://www.w3.org/2000/svg" xmlns:xlink="http://www.w3.org/1999/xlink" x="0px" y="0px"
	 viewBox="0 0 99.5 99.5" style="enable-background:new 0 0 99.5 99.5;" xml:space="preserve">
<g>
	<g>
		<path d="M0,53.3l0,4.9c0,0.5,0.4,1,0.9,1.1L7,60l0.4,0.9c0.1,0.3,0.4,0.5,0.7,0.6l6,1.3v-8.3c0-2.5,2-4.5,4.5-4.5h7.1
			c2.9,0,5.2,2.3,5.2,5.2v6.4l0.6-0.1L75,62l0.1,0v-7.6c0-2.5,2-4.5,4.5-4.5h7.1c2.9,0,5.2,2.3,5.2,5.2v7.4l2.7,0.1
			c0.6,0,1.1-0.3,1.3-0.8l0.4-0.8c0,0,1-0.3,1.7-1c0.6-0.7,1.8-3.8,1.3-6.7c-0.4-2.9-1.6-5.5-2.9-6.8c-2.6-2.6-19.2-3.2-19.2-3.2
			l-16.6-9.8c-0.7-0.4-1.5-0.6-2.3-0.6H3.5c-0.4,0-0.8,0.3-0.8,0.8v0.9c0,0.4,0.3,0.8,0.8,0.8h0.9c-1.6,5.7-3.1,7.6-2.9,16.9
			l-0.7,0.1C0.4,52.3,0,52.8,0,53.3z M52.9,43.2l-0.1-7.2c0-0.2,0.1-0.4,0.2-0.5s0.3-0.2,0.5-0.2h5.6c0.5,0,1,0.1,1.4,0.4l6.7,4.1
			c0,0-0.9,0.3-1.3,0.7c-0.5,0.5-0.7,1.9-0.3,2.5c0.4,0.6,1.2,1,1.2,1H53.6c-0.2,0-0.4-0.1-0.5-0.2C52.9,43.6,52.9,43.4,52.9,43.2z
			 M35.9,41.2l0.5-5.3c0-0.4,0.3-0.6,0.7-0.6h11.7c0.4,0,0.7,0.3,0.7,0.7v7.6c0,0.2-0.1,0.4-0.2,0.5c-0.1,0.1-0.3,0.2-0.5,0.2
			L38.2,44c-0.7,0-1.4-0.3-1.8-0.9C36,42.6,35.8,41.9,35.9,41.2z M5.1,42.8l2.3-7.1c0.1-0.3,0.4-0.5,0.7-0.5h22.7
			c0.2,0,0.4,0.1,0.6,0.3c0.1,0.2,0.2,0.4,0.1,0.6l-2.3,6c-0.5,0.8-1.4,1.3-2.3,1.3L5.4,43.3c-0.1,0-0.2-0.1-0.3-0.2
			C5.1,43,5.1,42.9,5.1,42.8z"/>
		<path d="M75.9,59c0,0.2,0,0.4,0,0.7c0.3,3.9,3.6,7,7.6,7c3.9,0,7.1-2.9,7.6-6.7c0-0.3,0.1-0.6,0.1-1c0-4.2-3.4-7.7-7.7-7.7
			C79.3,51.4,75.9,54.8,75.9,59z M88.3,58.4h-2.2c-0.1-0.2-0.2-0.5-0.3-0.7l1.6-1.6C87.9,56.8,88.2,57.5,88.3,58.4z M87.4,61.9
			l-1.6-1.6c0.1-0.2,0.2-0.4,0.3-0.7h2.2C88.2,60.5,87.9,61.3,87.4,61.9z M84.2,61.6c0.2-0.1,0.5-0.2,0.7-0.3l1.6,1.6
			c-0.6,0.5-1.4,0.8-2.2,0.9V61.6z M84.2,56.5l0-2.2c0.8,0.1,1.6,0.4,2.2,0.9l-1.6,1.6C84.7,56.6,84.5,56.5,84.2,56.5L84.2,56.5z
			 M82.9,54.3l0,2.2c-0.2,0.1-0.5,0.2-0.7,0.3l-1.6-1.6C81.3,54.7,82.1,54.4,82.9,54.3L82.9,54.3z M80.7,62.9l1.6-1.6
			c0.2,0.1,0.4,0.2,0.7,0.3v2.2C82.1,63.7,81.3,63.4,80.7,62.9z M78.8,59.7H81c0.1,0.2,0.2,0.5,0.3,0.7L79.7,62
			C79.2,61.3,78.9,60.5,78.8,59.7z M78.8,58.4c0.1-0.8,0.4-1.6,0.9-2.2l1.6,1.6c-0.1,0.2-0.2,0.4-0.3,0.7H78.8z"/>
		<path d="M14.9,59c0,0.2,0,0.4,0,0.7c0.3,3.9,3.6,7,7.6,7c3.9,0,7.1-2.9,7.6-6.7c0-0.3,0.1-0.6,0.1-1c0-4.2-3.4-7.7-7.7-7.7
			C18.3,51.4,14.9,54.8,14.9,59z M27.3,58.4h-2.2c-0.1-0.2-0.2-0.5-0.3-0.7l1.6-1.6C26.9,56.8,27.2,57.5,27.3,58.4z M26.4,61.9
			l-1.6-1.6c0.1-0.2,0.2-0.4,0.3-0.7h2.2C27.2,60.5,26.9,61.3,26.4,61.9z M23.2,61.6c0.2-0.1,0.5-0.2,0.7-0.3l1.6,1.6
			c-0.6,0.5-1.4,0.8-2.2,0.9V61.6z M23.2,56.5l0-2.2c0.8,0.1,1.6,0.4,2.2,0.9l-1.6,1.6C23.7,56.6,23.5,56.5,23.2,56.5L23.2,56.5z
			 M21.9,54.3l0,2.2c-0.2,0.1-0.5,0.2-0.7,0.3l-1.6-1.6C20.3,54.7,21.1,54.4,21.9,54.3L21.9,54.3z M19.7,62.9l1.6-1.6
			c0.2,0.1,0.4,0.2,0.7,0.3v2.2C21.1,63.7,20.3,63.4,19.7,62.9z M17.8,59.7H20c0.1,0.2,0.2,0.5,0.3,0.7L18.7,62
			C18.2,61.3,17.9,60.5,17.8,59.7z M17.8,58.4c0.1-0.8,0.4-1.6,0.9-2.2l1.6,1.6c-0.1,0.2-0.2,0.4-0.3,0.7H17.8z"/>
	</g>
</g>
</svg>
