<?xml version="1.0" encoding="utf-8"?>
<!-- Generator: Adobe Illustrator 19.2.1, SVG Export Plug-In . SVG Version: 6.00 Build 0)  -->
<svg version="1.1" id="Capa_1" xmlns="http://www.w3.org/2000/svg" xmlns:xlink="http://www.w3.org/1999/xlink" x="0px" y="0px"
	 viewBox="0 0 99.3 99.3" style="enable-background:new 0 0 99.3 99.3;" xml:space="preserve">
<g>
	<g>
		<path d="M70.4,57.3c0,0.2,0,0.4,0,0.6c0.3,3.7,3.4,6.6,7.1,6.7c3.7,0,6.7-2.7,7.2-6.3c0-0.3,0.1-0.6,0.1-0.9c0-4-3.2-7.3-7.2-7.3
			C73.7,50.1,70.4,53.3,70.4,57.3z M80.4,53.8l-1.5,1.5c-0.2-0.1-0.4-0.2-0.6-0.3l0-2.1C79.1,53,79.8,53.3,80.4,53.8z M82.1,56.8
			l-2.1,0c-0.1-0.2-0.1-0.4-0.3-0.6l1.5-1.5C81.7,55.3,82,56,82.1,56.8z M81.2,60.1l-1.5-1.5c0.1-0.2,0.2-0.4,0.3-0.6l2.1,0
			C82,58.8,81.7,59.5,81.2,60.1z M78.2,61.9l0-2.1c0.2-0.1,0.4-0.1,0.6-0.2l1.5,1.5C79.7,61.4,79,61.8,78.2,61.9z M74,54.6l1.5,1.5
			c-0.1,0.2-0.2,0.4-0.3,0.6l-2.1,0C73.3,55.9,73.6,55.2,74,54.6z M77,54.9c-0.2,0.1-0.4,0.1-0.6,0.3l-1.5-1.5
			c0.6-0.5,1.3-0.8,2.1-0.9L77,54.9z M74.9,60.9l1.5-1.5c0.2,0.1,0.4,0.2,0.6,0.3l0,2.1C76.2,61.7,75.5,61.4,74.9,60.9z M73.1,57.9
			l2.1,0c0.1,0.2,0.2,0.4,0.3,0.6L74,60.1C73.5,59.5,73.2,58.7,73.1,57.9z"/>
		<path d="M12,57.3c0,0.2,0,0.4,0,0.6c0.3,3.7,3.4,6.6,7.1,6.7c3.7,0,6.7-2.7,7.2-6.3c0-0.3,0.1-0.6,0.1-0.9c0-4-3.2-7.3-7.2-7.3
			C15.3,50.1,12,53.3,12,57.3z M22,53.8l-1.5,1.5c-0.2-0.1-0.4-0.2-0.6-0.3l0-2.1C20.7,53,21.4,53.3,22,53.8z M23.7,56.8l-2.1,0
			c-0.1-0.2-0.1-0.4-0.3-0.6l1.5-1.5C23.3,55.3,23.6,56,23.7,56.8z M22.8,60.1l-1.5-1.5c0.1-0.2,0.2-0.4,0.3-0.6l2.1,0
			C23.6,58.8,23.3,59.5,22.8,60.1z M19.8,61.9l0-2.1c0.2-0.1,0.4-0.1,0.6-0.2l1.5,1.5C21.3,61.4,20.6,61.8,19.8,61.9z M15.6,54.6
			l1.5,1.5c-0.1,0.2-0.2,0.4-0.3,0.6l-2.1,0C14.9,55.9,15.2,55.2,15.6,54.6z M18.6,54.9c-0.2,0.1-0.4,0.1-0.6,0.3l-1.5-1.5
			c0.6-0.5,1.3-0.8,2.1-0.9L18.6,54.9z M16.5,60.9l1.5-1.5c0.2,0.1,0.4,0.2,0.6,0.3l0,2.1C17.8,61.7,17.1,61.4,16.5,60.9z
			 M14.7,57.9l2.1,0c0.1,0.2,0.2,0.4,0.3,0.6l-1.5,1.5C15.1,59.5,14.8,58.7,14.7,57.9z"/>
		<path d="M0,42.9L0.3,44c0,0.1,0.1,0.3,0.2,0.3l2,1.5L1.2,48c-0.4,0.6-0.5,1.3-0.4,2.1l0.7,5.7c0.1,0.7,0.6,1.3,1.3,1.5l7.6,2.3
			l0.4,0c-0.1-0.5-0.2-1.1-0.3-1.6c0-0.2,0-0.5,0-0.7c0-4.8,4-8.7,8.9-8.7c4.8,0,8.7,4,8.7,8.9c0,0.4,0,0.7-0.1,1.1
			c-0.1,0.8-0.4,1.7-0.7,2.4L69.7,61c-0.4-0.9-0.7-1.9-0.8-3c0-0.2,0-0.5,0-0.7c0-4.8,4-8.7,8.9-8.7c4.8,0,8.7,4,8.7,8.9
			c0,0.4,0,0.7-0.1,1.1c-0.2,1.1-0.5,2.2-1.1,3.1l0.9,0L97.4,60c0.8-0.1,1.5-0.8,1.6-1.7l0.3-3.8c0.1-0.7-0.3-1.4-1-1.8l-4.7-2.5
			c0,0-3.9-3.5-5.7-4.4c-1.8-0.9-10-2.9-18.7-3c-3.7-2-10.8-4.9-15-6.6c-2.3-0.9-4.8-1.4-7.3-1.5c-5.1-0.2-13.7-0.2-16.8,0.8
			c-4,1.4-22,8-22,8l-0.4-1c-0.1-0.2-0.3-0.4-0.6-0.4H0.6c-0.2,0-0.4,0.1-0.5,0.2C0,42.5,0,42.7,0,42.9z M32.5,40
			c-0.3-0.5-0.3-1.2,0-1.7s0.9-0.9,1.5-0.9c3.4-0.1,9.2-0.2,12.7-0.2c1.9,0,3.8,0.5,5.4,1.5l4.6,2.7c-2.9,0.3-2.9,2.7-2.9,2.7
			l-19.4-0.6C34.5,43.4,33.5,41.7,32.5,40z"/>
	</g>
</g>
</svg>
