<?xml version="1.0" encoding="utf-8"?>
<!-- Generator: Adobe Illustrator 19.2.1, SVG Export Plug-In . SVG Version: 6.00 Build 0)  -->
<svg version="1.1" id="Capa_1" xmlns="http://www.w3.org/2000/svg" xmlns:xlink="http://www.w3.org/1999/xlink" x="0px" y="0px"
	 viewBox="0 0 99.3 99.3" style="enable-background:new 0 0 99.3 99.3;" xml:space="preserve">
<g>
	<g>
		<path d="M68.2,56.1c0.3,4,3.7,7.2,7.8,7.3c4,0,7.4-2.9,7.9-6.8c0-0.3,0.1-0.7,0.1-1c0-4.4-3.5-7.9-7.8-8c-4.4,0-7.9,3.5-8,7.8
			C68.1,55.7,68.1,55.9,68.2,56.1z M79,51.6l-1.6,1.6c-0.2-0.1-0.4-0.2-0.7-0.3l0-2.3C77.6,50.8,78.4,51.1,79,51.6z M80.9,54.9
			l-2.3,0c-0.1-0.2-0.2-0.5-0.3-0.7l1.6-1.6C80.5,53.3,80.8,54.1,80.9,54.9z M79.9,58.6l-1.6-1.6c0.1-0.2,0.2-0.4,0.3-0.7l2.3,0
			C80.8,57.1,80.4,57.9,79.9,58.6z M76.6,60.4l0-2.3c0.2-0.1,0.5-0.2,0.7-0.3l1.6,1.6C78.3,60,77.5,60.3,76.6,60.4z M72.1,52.5
			l1.6,1.6c-0.1,0.2-0.2,0.4-0.3,0.7l-2.3,0C71.2,54,71.6,53.2,72.1,52.5z M75.4,52.9c-0.2,0.1-0.5,0.2-0.7,0.3l-1.6-1.6
			c0.7-0.5,1.4-0.8,2.3-0.9L75.4,52.9z M73,59.5l1.6-1.6c0.2,0.1,0.4,0.2,0.7,0.3l0,2.3C74.4,60.3,73.7,60,73,59.5z M71.1,56.2
			l2.3,0c0.1,0.2,0.2,0.5,0.3,0.7L72,58.5C71.5,57.8,71.2,57,71.1,56.2z"/>
		<path d="M7,55.1c0,0.2,0,0.5,0,0.7c0.3,4,3.7,7.2,7.8,7.3c4,0,7.4-2.9,7.9-6.8c0-0.3,0.1-0.7,0.1-1c0-4.4-3.5-7.9-7.8-8
			C10.6,47.3,7,50.8,7,55.1z M17.9,51.3l-1.6,1.6c-0.2-0.1-0.4-0.2-0.7-0.3l0-2.3C16.5,50.5,17.2,50.8,17.9,51.3z M19.8,54.6l-2.3,0
			c-0.1-0.2-0.2-0.5-0.3-0.7l1.6-1.6C19.3,52.9,19.7,53.7,19.8,54.6z M18.8,58.2l-1.6-1.6c0.1-0.2,0.2-0.4,0.3-0.7l2.3,0
			C19.6,56.8,19.3,57.6,18.8,58.2z M15.5,60.1l0-2.3c0.2-0.1,0.5-0.2,0.7-0.3l1.6,1.6C17.1,59.7,16.4,60,15.5,60.1z M11,52.2
			l1.6,1.6c-0.1,0.2-0.2,0.4-0.3,0.7l-2.3,0C10.1,53.6,10.5,52.9,11,52.2z M14.2,52.6c-0.2,0.1-0.5,0.2-0.7,0.3l-1.6-1.6
			c0.7-0.5,1.4-0.8,2.3-0.9L14.2,52.6z M11.9,59.1l1.6-1.6c0.2,0.1,0.4,0.2,0.7,0.3l0,2.3C13.3,60,12.5,59.6,11.9,59.1z M10,55.9
			l2.3,0c0.1,0.2,0.2,0.5,0.3,0.7l-1.6,1.6C10.4,57.5,10.1,56.7,10,55.9z"/>
		<path d="M0.1,51.9l1.7,4.2l2,1c0.4,0.7,1.2,1.2,2,1.3l0.7,0c-0.3-0.8-0.5-1.6-0.6-2.5c0-0.3,0-0.5,0-0.8c0-4.9,4-8.8,9-8.8
			c4.9,0,8.9,4.1,8.8,9c0,0.4,0,0.7-0.1,1.1c-0.1,1.1-0.5,2.1-1,3.1l1.2,0.1l44.5,0.5c-0.7-1.1-1.1-2.4-1.2-3.8c0-0.3,0-0.5,0-0.8
			c0-4.9,4-8.8,9-8.8c4.9,0,8.9,4.1,8.8,9c0,0.4,0,0.7-0.1,1.1c-0.2,1.3-0.6,2.4-1.3,3.5l0.6,0l14.3-0.7c0.2,0,0.4-0.1,0.5-0.2
			c0.1-0.1,0.1-0.3,0.1-0.5l-0.6-2.3l0.8-1.8c-8.5-8.3-22.4-10.7-22.4-10.7s-9.3-3.6-15.3-5.5C41,31.7,9.3,40.2,2.8,41.6
			c-0.6,0.1-1,0.7-0.9,1.3l0.6,3.3l-1.1,0.5c-0.5,0.2-0.7,0.7-0.6,1.3l0.6,2.7l-0.8,0.3c-0.2,0.1-0.4,0.2-0.5,0.4
			C0,51.4,0,51.7,0.1,51.9z M66.5,45.5v-3.9c2.1,0.8,3.7,1.4,4.6,1.8c0.2,0.1,0.3,0.3,0.3,0.4c0,0.2-0.1,0.4-0.3,0.4
			C69.9,44.7,68,45.3,66.5,45.5z M58.3,44l0.2,1.1c0,0-8.8-0.4-18.7-1.8l1.7-5.4c5.7-0.3,11.8-0.1,16.2,1.1c3.1,0.8,5.7,1.6,7.8,2.3
			v4.3c-1.3,0.1-2.4,0-2.4,0s2.1-1,1.9-1.6c-0.4-1.2-3.6-1.7-5.2-1.8c-0.6-0.1-1.1,0.3-1.4,0.8C58.3,43.3,58.2,43.6,58.3,44z
			 M27.2,40.7c1.7-1.1,6-2,11.1-2.5l-1.5,4.6C33.6,42.2,30.3,41.5,27.2,40.7z"/>
	</g>
</g>
</svg>
