<?xml version="1.0" encoding="utf-8"?>
<!-- Generator: Adobe Illustrator 19.2.1, SVG Export Plug-In . SVG Version: 6.00 Build 0)  -->
<svg version="1.1" id="Capa_1" xmlns="http://www.w3.org/2000/svg" xmlns:xlink="http://www.w3.org/1999/xlink" x="0px" y="0px"
	 viewBox="0 0 99 99" style="enable-background:new 0 0 99 99;" xml:space="preserve">
<g>
	<g>
		<path d="M74.2,59.6c0,0.2,0,0.4,0,0.6c0.3,3.8,3.5,6.8,7.4,6.8c3.8,0,6.9-2.8,7.4-6.5c0-0.3,0.1-0.6,0.1-0.9
			c0-4.1-3.3-7.5-7.5-7.5C77.6,52.2,74.2,55.5,74.2,59.6z M86.3,59h-2.1c-0.1-0.2-0.2-0.5-0.3-0.7l1.5-1.5
			C85.9,57.4,86.2,58.2,86.3,59z M85.4,62.5l-1.5-1.5c0.1-0.2,0.2-0.4,0.3-0.6h2.2C86.2,61.1,85.9,61.8,85.4,62.5z M82.3,62.1
			c0.2-0.1,0.4-0.1,0.6-0.3l1.5,1.5c-0.6,0.5-1.4,0.8-2.2,0.9V62.1z M82.3,55c0.8,0.1,1.6,0.4,2.2,0.9L83,57.4
			c-0.2-0.1-0.4-0.2-0.7-0.3V55z M81,55l0,2.1c-0.2,0.1-0.5,0.2-0.7,0.3l-1.5-1.5C79.5,55.4,80.2,55.1,81,55L81,55z M78.9,63.4
			l1.5-1.5c0.2,0.1,0.4,0.2,0.6,0.3v2.2C80.2,64.1,79.5,63.8,78.9,63.4z M77.1,60.3h2.1c0.1,0.2,0.2,0.4,0.3,0.6L78,62.5
			C77.5,61.8,77.2,61.1,77.1,60.3z M79.2,59h-2.1c0.1-0.8,0.4-1.6,0.9-2.2l1.5,1.5C79.4,58.5,79.3,58.8,79.2,59L79.2,59z"/>
		<path d="M12.2,59.6c0,0.2,0,0.4,0,0.6c0.3,3.8,3.5,6.8,7.4,6.8c3.8,0,6.9-2.8,7.4-6.5c0-0.3,0.1-0.6,0.1-0.9
			c0-4.1-3.3-7.5-7.5-7.5C15.6,52.2,12.2,55.5,12.2,59.6z M24.3,59h-2.1c-0.1-0.2-0.2-0.5-0.3-0.7l1.5-1.5
			C23.9,57.4,24.2,58.2,24.3,59z M23.4,62.5l-1.5-1.5c0.1-0.2,0.2-0.4,0.3-0.6h2.2C24.2,61.1,23.9,61.8,23.4,62.5z M20.3,62.1
			c0.2-0.1,0.4-0.1,0.6-0.3l1.5,1.5c-0.6,0.5-1.4,0.8-2.2,0.9V62.1z M20.3,55c0.8,0.1,1.6,0.4,2.2,0.9L21,57.4
			c-0.2-0.1-0.4-0.2-0.7-0.3C20.3,57.1,20.3,55,20.3,55z M19,57.1c-0.2,0.1-0.5,0.2-0.7,0.3l-1.5-1.5c0.6-0.5,1.4-0.8,2.2-0.9
			C19,55,19,57.1,19,57.1z M16.9,63.4l1.5-1.5c0.2,0.1,0.4,0.2,0.6,0.3v2.2C18.2,64.1,17.5,63.8,16.9,63.4z M15,60.3h2.1
			c0.1,0.2,0.2,0.4,0.3,0.6l-1.5,1.5C15.5,61.8,15.2,61.1,15,60.3z M17.2,59H15c0.1-0.8,0.4-1.6,0.9-2.2l1.5,1.5
			C17.3,58.5,17.3,58.8,17.2,59L17.2,59z"/>
		<path d="M0,52.4c0,4.3,2.9,5.8,2.9,5.8l7.6,1.4l0.2,0c0,0,0,0,0-0.1c0-4.9,4-9,9-9s9,4,9,9c0,0.4,0,0.7-0.1,1.1
			c0,0.1,0,0.2-0.1,0.3L73,62c0,0,0,0,0,0c-0.1-0.5-0.2-1.1-0.3-1.6c0-0.2,0-0.5,0-0.8c0-4.9,4-9,9-9s9,4,9,9c0,0.4,0,0.7-0.1,1.1
			c0,0.2-0.1,0.4-0.1,0.6c3.1-0.3,5.7-0.9,7.1-1.6c1.3-2.2,1.5-5.3,1.3-6c-0.2-0.7-0.5-1.9-1.4-4.5c-1-2.6-19.1-6.4-20.9-6.4
			c-6.2-2.6-16.8-7.7-19.2-8.5c-13.9-4.8-28.4-0.9-31.6-0.1c-3.2,0.7-12.5,4.7-14.9,5.4C9.1,40,5.4,40.7,3.3,41
			c-0.9,0.1-1.5,0.9-1.5,1.8v5.5C1.7,48.3,0,49.6,0,52.4z M43.8,34.3c0,0,13.3,0.2,19.9,6.2c0,0-1.5,0.6-1.2,3l-16.6-0.5L43.8,34.3z
			 M26.5,39.5l2.2-3.6c0,0,4.5-1.7,12.3-1.6l1.4,8.5l-15.2-0.5L26.5,39.5z M19.9,39.7c1.5-0.8,4-2,7.2-3.3l-4.2,5.8h-4.2
			C18.5,41.2,19,40.2,19.9,39.7z"/>
	</g>
</g>
</svg>
