<?xml version="1.0" encoding="utf-8"?>
<!-- Generator: Adobe Illustrator 19.2.1, SVG Export Plug-In . SVG Version: 6.00 Build 0)  -->
<svg version="1.1" id="Capa_1" xmlns="http://www.w3.org/2000/svg" xmlns:xlink="http://www.w3.org/1999/xlink" x="0px" y="0px"
	 viewBox="0 0 99.4 99.4" style="enable-background:new 0 0 99.4 99.4;" xml:space="preserve">
<g>
	<g>
		<path d="M73.4,55.5c0,0.2,0,0.4,0,0.6c0.2,3.8,3.2,6.9,7.1,7.1c3.8,0.2,7-2.6,7.6-6.2c0.1-0.3,0.1-0.6,0.1-0.9
			c0.2-4.1-3-7.6-7.1-7.7C77.1,48.2,73.6,51.4,73.4,55.5z M83.8,52.2l-1.6,1.5c-0.2-0.1-0.4-0.2-0.6-0.3l0.1-2.1
			C82.5,51.3,83.2,51.7,83.8,52.2z M85.5,55.3l-2.1-0.1c-0.1-0.2-0.1-0.5-0.2-0.7l1.6-1.5C85.2,53.8,85.4,54.5,85.5,55.3z
			 M84.5,58.8L83,57.2c0.1-0.2,0.2-0.4,0.3-0.6l2.2,0.1C85.3,57.4,85,58.1,84.5,58.8z M81.3,60.4l0.1-2.1c0.2,0,0.5-0.1,0.7-0.2
			l1.5,1.6C82.9,60.1,82.1,60.3,81.3,60.4z M77.3,52.8l1.5,1.6c-0.1,0.2-0.2,0.4-0.3,0.6L76.3,55C76.4,54.2,76.8,53.4,77.3,52.8z
			 M80.3,53.3c-0.2,0.1-0.5,0.1-0.7,0.2L78.2,52c0.6-0.4,1.4-0.7,2.2-0.8L80.3,53.3z M77.9,59.4l1.6-1.5c0.2,0.1,0.4,0.2,0.6,0.3
			L80,60.4C79.2,60.2,78.5,59.9,77.9,59.4z M76.2,56.3l2.1,0.1c0.1,0.2,0.1,0.5,0.2,0.7L77,58.5C76.6,57.8,76.3,57.1,76.2,56.3z"/>
		<path d="M16.2,53.7c0,0.2,0,0.4,0,0.6c0.2,3.8,3.2,6.9,7.1,7.1c3.8,0.2,7-2.6,7.6-6.2C31,55,31,54.6,31,54.3
			c0.2-4.1-3-7.6-7.1-7.7C19.8,46.4,16.3,49.6,16.2,53.7z M26.6,50.4L25,51.9c-0.2-0.1-0.4-0.2-0.6-0.3l0.1-2.1
			C25.2,49.6,26,49.9,26.6,50.4z M28.2,53.6l-2.1-0.1C26,53.3,26,53,25.9,52.8l1.6-1.5C27.9,52,28.2,52.8,28.2,53.6z M27.2,57
			l-1.5-1.6c0.1-0.2,0.2-0.4,0.3-0.6l2.2,0.1C28,55.7,27.7,56.4,27.2,57z M24.1,58.7l0.1-2.1c0.2,0,0.5-0.1,0.7-0.2l1.5,1.6
			C25.6,58.3,24.9,58.6,24.1,58.7z M20,51.1l1.5,1.6c-0.1,0.2-0.2,0.4-0.3,0.6L19,53.2C19.1,52.4,19.5,51.7,20,51.1z M23,51.5
			c-0.2,0.1-0.5,0.1-0.7,0.2l-1.5-1.6c0.6-0.5,1.4-0.7,2.2-0.8L23,51.5z M20.6,57.6l1.6-1.5c0.2,0.1,0.4,0.2,0.6,0.3l-0.1,2.1
			C22,58.5,21.2,58.1,20.6,57.6z M19,54.5l2.1,0.1c0.1,0.2,0.1,0.5,0.2,0.7l-1.6,1.5C19.3,56.1,19,55.3,19,54.5z"/>
		<path d="M0.1,50.3l2.4,3.6c0.1,0.2,0.3,0.3,0.6,0.3l2.1,0.1L7,56.4c0.1,0.1,0.3,0.2,0.5,0.2l8.1,0.2c-0.3-0.8-0.5-1.6-0.5-2.5
			c0-0.2,0-0.5,0-0.7c0.2-4.6,4.1-8.3,8.9-8.2c2.3,0.1,4.4,1.1,5.9,2.7c1.5,1.7,2.3,3.8,2.2,6.1c0,0.4-0.1,0.7-0.1,1.1
			c-0.3,1.6-0.9,3-1.9,4.1l41-0.4l2,0c-0.4-0.9-0.6-1.9-0.7-2.9c0-0.2,0-0.5,0-0.7c0.2-4.6,4.1-8.3,8.9-8.2c2.3,0.1,4.4,1.1,5.9,2.7
			c1.5,1.7,2.3,3.8,2.2,6.1c0,0.4-0.1,0.7-0.1,1.1c-0.1,0.5-0.2,1-0.4,1.5c1.5,0,2.9-0.3,4.3-0.9l2.4-1c1.3-0.5,2.2-1.6,2.6-3
			l0.2-0.7c0,0,0.2,0,0.6-0.3c0.3-0.2,0.5-0.7,0.5-1.1s-0.3-0.8-0.6-1c-2.5-1.4-5.8-2.3-5.8-2.3c-6.9-4.9-13.3-4.7-17.1-4.5
			c-3.1,0.2-14.1,0.8-18.8-1.2C54.2,41.7,46.4,37,46.4,37c-0.8-0.5-1.7-0.7-2.7-0.7c-3.2-0.1-11.1-0.3-14.9,0.1
			c-0.7,0.1-1.3,0.3-1.9,0.7c-5.1,3.8-21.5,7.4-25.3,7.2c-0.2,0-0.3,0.1-0.4,0.2c-0.1,0.1-0.1,0.3-0.1,0.4c0.2,1.5,0.8,4.3,0.8,4.3
			l-1.1,0c-0.3,0-0.5,0.1-0.6,0.4S0,50,0.1,50.3z M33.3,41.3l0.1-2.5c0-0.6,0.5-1,1-1l9.6,0.1c0.4,0,0.9,0.2,1.2,0.4l6.6,5.4
			c-5.7,0.7-14.3,0.6-16-0.5c-0.3-0.5-0.9-0.8-1.4-0.9l-0.2,0C33.7,42.3,33.3,41.8,33.3,41.3z"/>
	</g>
</g>
</svg>
