<?xml version="1.0" encoding="utf-8"?>
<!-- Generator: Adobe Illustrator 19.2.1, SVG Export Plug-In . SVG Version: 6.00 Build 0)  -->
<svg version="1.1" id="Layer_1" xmlns="http://www.w3.org/2000/svg" xmlns:xlink="http://www.w3.org/1999/xlink" x="0px" y="0px"
	 viewBox="0 0 32 32" style="enable-background:new 0 0 32 32;" xml:space="preserve">
<style type="text/css">
	.st0{fill:#4E4E4E;}
</style>
<path class="st0" d="M22,16h-2v4h2V16z M18,16h-2v4h2V16z M22,10h-2v4h2V10z M26,16h-2v4h2V16z M18,22h-2v4h2V22z M24,0h-2v4h2V0z
	 M8,0H6v4h2V0z M26,10h-2v4h2V10z M18,10h-2v4h2V10z M10,22H8v4h2V22z M6,16H4v4h2V16z M10,16H8v4h2V16z M26,2v4h-6V2H10v4H4V2H0v28
	h30V2H26z M28,28H2V8h26V28z M6,22H4v4h2V22z M14,10h-2v4h2V10z M14,22h-2v4h2V22z M10,10H8v4h2V10z M14,16h-2v4h2V16z M22,22h-2v4
	h2V22z"/>
</svg>
