<?xml version="1.0" encoding="utf-8"?>
<!-- Generator: Adobe Illustrator 19.2.1, SVG Export Plug-In . SVG Version: 6.00 Build 0)  -->
<svg version="1.1" id="Capa_1" xmlns="http://www.w3.org/2000/svg" xmlns:xlink="http://www.w3.org/1999/xlink" x="0px" y="0px"
	 viewBox="0 0 99 99" style="enable-background:new 0 0 99 99;" xml:space="preserve">
<g>
	<g>
		<path d="M74.7,59.8c0,0.2,0,0.4,0,0.6c0.3,3.6,3.3,6.5,7.1,6.5c3.6,0,6.6-2.7,7-6.2c0-0.3,0.1-0.6,0.1-0.9c0-3.9-3.2-7.1-7.1-7.1
			C77.8,52.7,74.7,55.9,74.7,59.8z M86.1,59.2h-2C84,59,84,58.8,83.8,58.6l1.4-1.4C85.7,57.7,86,58.4,86.1,59.2z M85.3,62.5L83.8,61
			c0.1-0.2,0.2-0.4,0.3-0.6h2.1C86,61.2,85.7,61.9,85.3,62.5z M82.4,64.2l0-2c0.2-0.1,0.4-0.1,0.6-0.2l1.4,1.4
			C83.8,63.8,83.1,64.1,82.4,64.2L82.4,64.2z M82.4,55.4c0.8,0.1,1.5,0.4,2.1,0.9L83,57.7c-0.2-0.1-0.4-0.2-0.6-0.3
			C82.4,57.4,82.4,55.4,82.4,55.4z M81.1,57.4c-0.2,0.1-0.4,0.1-0.6,0.3l-1.4-1.4c0.6-0.5,1.3-0.7,2.1-0.9
			C81.1,55.4,81.1,57.4,81.1,57.4z M79.1,63.3l1.4-1.4c0.2,0.1,0.4,0.2,0.6,0.2v2C80.4,64.1,79.7,63.8,79.1,63.3z M77.4,60.4h2
			c0.1,0.2,0.2,0.4,0.3,0.6l-1.5,1.5C77.7,61.9,77.5,61.2,77.4,60.4z M77.3,59.2c0.1-0.8,0.4-1.5,0.8-2.1l1.4,1.4
			c-0.1,0.2-0.2,0.4-0.3,0.6H77.3z"/>
		<path d="M13.5,59.3c0,0.2,0,0.4,0,0.6c0.3,3.6,3.3,6.5,7.1,6.5c3.6,0,6.6-2.7,7-6.2c0-0.3,0.1-0.6,0.1-0.9c0-3.9-3.2-7.1-7.1-7.1
			C16.6,52.3,13.5,55.4,13.5,59.3z M24.9,58.7h-2c-0.1-0.2-0.1-0.4-0.3-0.6l1.4-1.4C24.5,57.3,24.8,58,24.9,58.7z M24.1,62l-1.4-1.4
			c0.1-0.2,0.2-0.4,0.3-0.6h2.1C24.8,60.7,24.5,61.4,24.1,62z M21.2,63.7v-2c0.2-0.1,0.4-0.1,0.6-0.2l1.4,1.4
			C22.6,63.3,21.9,63.6,21.2,63.7L21.2,63.7z M21.2,57v-2c0.8,0.1,1.5,0.4,2.1,0.9l-1.4,1.4C21.6,57.1,21.4,57,21.2,57L21.2,57z
			 M19.9,57c-0.2,0.1-0.4,0.1-0.6,0.3l-1.4-1.4c0.6-0.4,1.3-0.7,2.1-0.9V57z M17.9,62.9l1.4-1.4c0.2,0.1,0.4,0.2,0.6,0.2v2
			C19.2,63.6,18.5,63.3,17.9,62.9z M16.1,60h2c0.1,0.2,0.2,0.4,0.3,0.6L17,62C16.5,61.4,16.3,60.7,16.1,60z M16.1,58.7
			c0.1-0.8,0.4-1.5,0.8-2.1l1.4,1.4c-0.1,0.2-0.2,0.4-0.3,0.6H16.1z"/>
		<path d="M0,55.5L0.2,57c0.1,1,0.8,1.8,1.8,2.1l10.4,3.2h0.1c-0.3-0.7-0.4-1.5-0.5-2.2c0-0.2,0-0.5,0-0.7c0-4.7,3.9-8.6,8.6-8.6
			c4.7,0,8.6,3.9,8.6,8.6c0,0.3,0,0.7-0.1,1.1c-0.1,0.7-0.2,1.3-0.5,1.9h44.9c-0.2-0.6-0.3-1.2-0.4-1.8c0-0.2,0-0.5,0-0.7
			c0-4.7,3.9-8.6,8.6-8.6c4.7,0,8.6,3.9,8.6,8.6c0,0.3,0,0.7-0.1,1.1c-0.1,0.5-0.2,0.9-0.3,1.4l5.5-1.1c1.6-0.3,2.8-1.5,3.1-3.1
			c0.3-1.4,0.5-3,0.4-4.2c-0.3-2.6-1.8-4.3-4.3-5.7c-3.3-1.8-18.4-4.3-18.4-4.3S64.6,36.4,54.9,34c-13.2-3.3-33.1-1.2-41.5-0.1
			c-2.6,0.3-4.8,1.8-6.3,3.9l-4.1,6.1c-0.8,1.1-1.2,2.5-1.2,3.8V53l-0.5,0.2C0.4,53.6-0.1,54.5,0,55.5z M43.2,34.3
			c0.1,0,0.1,0,0.2,0v9.4L31,43v-8.6C34.8,34.3,39,34.2,43.2,34.3z M65.1,42.5c0,1.9,0.8,2.3,0.8,2.3l-17.8-0.9l-1.1-9.4
			c11.1,1,18.9,5.8,18.9,5.8v1C65.2,41.6,65.1,42.5,65.1,42.5z M26.3,42.8l2.3-4.4v4.5L26.3,42.8z M9.7,40c-0.1-1.2,1.6-3.7,3.4-4.2
			c1.2-0.3,7-0.9,14.9-1.2l-4.3,8.1l-10.2-0.5c-0.8,0-1.6-0.3-2.3-0.6C10.4,41.1,9.7,40.6,9.7,40z"/>
	</g>
</g>
</svg>
