<?xml version="1.0" encoding="utf-8"?>
<!-- Generator: Adobe Illustrator 19.2.1, SVG Export Plug-In . SVG Version: 6.00 Build 0)  -->
<svg version="1.1" id="Capa_1" xmlns="http://www.w3.org/2000/svg" xmlns:xlink="http://www.w3.org/1999/xlink" x="0px" y="0px"
	 viewBox="0 0 99.1 99.1" style="enable-background:new 0 0 99.1 99.1;" xml:space="preserve">
<g>
	<g>
		<path d="M73.4,62.3c0,0.3,0,0.6,0,0.9c0.5,5.4,5,9.7,10.5,9.7c5.4,0,9.8-4,10.5-9.2c0.1-0.4,0.1-0.9,0.1-1.3
			c0-5.8-4.7-10.6-10.6-10.6C78.2,51.8,73.4,56.5,73.4,62.3z M88.9,61.7h-2.3c-0.1-0.2-0.2-0.5-0.3-0.7l1.6-1.6
			C88.5,60,88.8,60.8,88.9,61.7z M88,65.3l-1.6-1.6c0.1-0.2,0.2-0.4,0.3-0.7h2.3C88.8,63.9,88.5,64.7,88,65.3z M84.7,67.3l0-2.3
			c0.2-0.1,0.5-0.2,0.7-0.3l1.6,1.6C86.3,66.8,85.6,67.1,84.7,67.3L84.7,67.3z M84.7,57.4c0.9,0.1,1.7,0.5,2.3,1L85.4,60
			c-0.2-0.1-0.4-0.2-0.7-0.3V57.4z M83.3,59.7c-0.2,0.1-0.5,0.2-0.7,0.3L81,58.4c0.7-0.5,1.5-0.8,2.3-1
			C83.3,57.4,83.3,59.7,83.3,59.7z M81,66.3l1.6-1.6c0.2,0.1,0.4,0.2,0.7,0.3v2.3C82.5,67.1,81.7,66.8,81,66.3z M79.1,63h2.3
			c0.1,0.2,0.2,0.5,0.3,0.7L80,65.3C79.5,64.7,79.2,63.9,79.1,63z M79.1,61.7c0.1-0.9,0.4-1.7,0.9-2.3l1.6,1.6
			c-0.1,0.2-0.2,0.4-0.3,0.7H79.1z"/>
		<path d="M8.2,62.3c0,0.3,0,0.6,0,0.9c0.5,5.4,5,9.7,10.5,9.7c5.4,0,9.8-4,10.5-9.2c0.1-0.4,0.1-0.9,0.1-1.3
			c0-5.8-4.7-10.6-10.6-10.6C13,51.8,8.2,56.5,8.2,62.3z M23.7,61.7h-2.3c-0.1-0.2-0.2-0.5-0.3-0.7l1.6-1.6
			C23.3,60,23.6,60.8,23.7,61.7z M22.8,65.3l-1.6-1.6c0.1-0.2,0.2-0.4,0.3-0.7h2.3C23.6,63.9,23.3,64.7,22.8,65.3z M19.5,67.3V65
			c0.2-0.1,0.5-0.2,0.7-0.3l1.6,1.6C21.1,66.8,20.3,67.1,19.5,67.3L19.5,67.3z M19.5,57.4c0.9,0.1,1.7,0.5,2.3,1L20.2,60
			c-0.2-0.1-0.4-0.2-0.7-0.3C19.5,59.7,19.5,57.4,19.5,57.4z M18.1,59.7c-0.2,0.1-0.5,0.2-0.7,0.3l-1.6-1.6c0.7-0.5,1.5-0.8,2.3-1
			C18.1,57.4,18.1,59.7,18.1,59.7z M15.8,66.3l1.6-1.6c0.2,0.1,0.4,0.2,0.7,0.3v2.3C17.3,67.1,16.5,66.8,15.8,66.3z M13.9,63h2.3
			c0.1,0.2,0.2,0.5,0.3,0.7l-1.6,1.6C14.3,64.7,14,63.9,13.9,63z M13.9,61.7c0.1-0.9,0.4-1.7,0.9-2.3l1.6,1.6
			c-0.1,0.2-0.2,0.4-0.3,0.7H13.9z"/>
		<path d="M21.6,27.7c0,0.9,0.7,1.5,1.5,1.6l28.3,0.4c0,0,0,0,0,0c0.8,0,1.5-0.7,1.5-1.5c0-0.9-0.7-1.5-1.5-1.6l-28.3-0.4
			C22.3,26.2,21.6,26.9,21.6,27.7z"/>
		<path d="M32.8,63.6c0,0.9,0.7,1.5,1.5,1.5h33.5c0.8,0,1.5-0.7,1.5-1.5c0-0.9-0.7-1.5-1.5-1.5H34.4C33.5,62,32.8,62.7,32.8,63.6z"
			/>
		<path d="M0,54.8l0.5,2.7c0.4,2,2.1,3.4,4.2,3.4h1.9l5.4-9.2c0.4-0.6,1-1,1.7-1H24c0.7,0,1.4,0.4,1.7,1l5.5,9.2h39.1l7.5-9.8
			c0.4-0.5,1-0.8,1.6-0.8h11.1c0.9,0,1.6,0.5,1.9,1.3l3.2,8.8h1.2c1.3,0,2.3-1,2.3-2.3v-3.4c0-1-0.8-1.9-1.9-1.9h-1.8v-1.9
			c0.3,0,0.6-0.2,0.8-0.5c0.1-0.3,0.1-0.6-0.1-0.9c0,0-1-1.7-1.5-2.1c-0.6-0.5-2.7-1.2-2.7-1.2l-1.2-1.8c-0.7-1-1.7-1.6-2.9-1.7
			l-21.7-1.3L59.5,33c-0.5-0.6-1.2-1-2-1l-50-0.8c-1.1,0-2,0.8-2.1,1.9L3.6,52.6H1.9c-0.6,0-1.1,0.3-1.5,0.7
			C0.1,53.7-0.1,54.3,0,54.8z M46.1,39.9v-5.1L57.8,35c0.2,0,0.5,0.1,0.6,0.3l3.5,4.6h-2.3v3.5H48L46.1,39.9z M26.4,40.9v-6.4
			l15,0.2v8.7H29L26.4,40.9z M8.6,43.5l0.6-8.8c0-0.2,0.2-0.4,0.4-0.4l12.9,0.2v9C22.5,43.5,8.6,43.5,8.6,43.5z"/>
	</g>
</g>
</svg>
