<?xml version="1.0" encoding="utf-8"?>
<!-- Generator: Adobe Illustrator 19.2.1, SVG Export Plug-In . SVG Version: 6.00 Build 0)  -->
<svg version="1.1" id="Capa_1" xmlns="http://www.w3.org/2000/svg" xmlns:xlink="http://www.w3.org/1999/xlink" x="0px" y="0px"
	 viewBox="0 0 99.4 99.4" style="enable-background:new 0 0 99.4 99.4;" xml:space="preserve">
<g>
	<g>
		<path d="M72.8,61.6c0,0.2,0,0.4,0,0.6c0.3,3.9,3.6,6.9,7.5,6.9c3.9,0,7-2.9,7.5-6.6c0-0.3,0.1-0.6,0.1-1c0-4.2-3.4-7.6-7.6-7.6
			C76.2,54.1,72.8,57.5,72.8,61.6z M85,61h-2.2c-0.1-0.2-0.2-0.5-0.3-0.7l1.5-1.5C84.6,59.4,84.9,60.2,85,61z M84.1,64.5L82.6,63
			c0.1-0.2,0.2-0.4,0.3-0.7H85C84.9,63.1,84.6,63.9,84.1,64.5z M81,64.1c0.2-0.1,0.5-0.1,0.7-0.3l1.5,1.5c-0.6,0.5-1.4,0.8-2.2,0.9
			V64.1z M81,56.9c0.8,0.1,1.6,0.4,2.2,0.9l-1.5,1.5c-0.2-0.1-0.4-0.2-0.7-0.3V56.9z M79.7,59.1c-0.2,0.1-0.5,0.2-0.7,0.3l-1.5-1.5
			c0.6-0.5,1.4-0.8,2.2-0.9V59.1z M77.5,65.4l1.5-1.5c0.2,0.1,0.4,0.2,0.7,0.3v2.2C78.9,66.2,78.1,65.9,77.5,65.4z M75.7,62.3h2.2
			c0.1,0.2,0.2,0.5,0.3,0.7l-1.6,1.6C76.1,63.9,75.8,63.1,75.7,62.3z M75.7,61c0.1-0.8,0.4-1.6,0.9-2.2l1.5,1.5
			c-0.1,0.2-0.2,0.4-0.3,0.7H75.7z"/>
		<path d="M7.9,61.6c0,0.2,0,0.4,0,0.6c0.3,3.9,3.6,6.9,7.5,6.9c3.9,0,7-2.9,7.5-6.6c0-0.3,0.1-0.6,0.1-1c0-4.2-3.4-7.6-7.6-7.6
			C11.3,54.1,7.9,57.5,7.9,61.6z M20.2,61H18c-0.1-0.2-0.2-0.5-0.3-0.7l1.5-1.5C19.7,59.4,20.1,60.2,20.2,61z M19.3,64.5L17.7,63
			c0.1-0.2,0.2-0.4,0.3-0.7h2.2C20.1,63.1,19.7,63.9,19.3,64.5z M16.1,64.1c0.2-0.1,0.5-0.1,0.7-0.3l1.5,1.5
			c-0.6,0.5-1.4,0.8-2.2,0.9V64.1z M16.1,59.1l0-2.2c0.8,0.1,1.6,0.4,2.2,0.9l-1.5,1.5C16.6,59.3,16.4,59.2,16.1,59.1L16.1,59.1z
			 M14.8,59.1c-0.2,0.1-0.5,0.2-0.7,0.3l-1.5-1.5c0.6-0.5,1.4-0.8,2.2-0.9V59.1z M12.6,65.4l1.5-1.5c0.2,0.1,0.4,0.2,0.7,0.3v2.2
			C14,66.2,13.3,65.9,12.6,65.4z M10.8,62.3H13c0.1,0.2,0.2,0.5,0.3,0.7l-1.6,1.6C11.2,63.9,10.9,63.1,10.8,62.3z M10.8,61
			c0.1-0.8,0.4-1.6,0.9-2.2l1.5,1.5C13.1,60.5,13,60.8,13,61H10.8z"/>
		<path d="M0,58.4c-0.1,1.7,1.1,3.2,2.8,3.6l4.1,0.8c0-0.2,0-0.3-0.1-0.5c0-0.2,0-0.5,0-0.7c0-4.8,3.9-8.6,8.6-8.6
			c4.8,0,8.6,3.9,8.6,8.6c0,0.4,0,0.7-0.1,1.1c0,0.3-0.1,0.5-0.1,0.8l47.6,1.3l0.8,0c-0.3-0.8-0.5-1.6-0.6-2.4c0-0.2,0-0.5,0-0.7
			c0-4.8,3.9-8.6,8.6-8.6c4.8,0,8.6,3.9,8.6,8.6c0,0.4,0,0.7-0.1,1.1c-0.1,0.4-0.1,0.8-0.2,1.2l7.2-1.1c1.5-0.2,2.7-1.3,3.1-2.8
			c0.3-1.3,0.7-2.9,0.5-4c-0.2-2-1.6-2.8-1.6-2.8c-3.1-7.5-19.6-10.1-19.6-10.1s-15-9.9-20.9-11.5c-8.8-2.4-36.7-1.2-45.8-0.7
			C9.6,31,8,32,7.1,33.6l-5.4,9.6c-0.8,1.5-1.3,3.1-1.3,4.8L0,58.4z M43.4,32.7v11.7l-16.8-0.7l1.1-10.9
			C32.9,32.6,38.5,32.5,43.4,32.7z M68.9,43.7v-2.8c1.3,0.9,2.5,1.8,3.5,2.5c0.4,0.3,0.5,0.7,0.4,1.2c-0.2,0.4-0.6,0.7-1,0.7
			l-1.7-0.1C70.1,45.1,69.7,44.3,68.9,43.7z M62.5,45.1l-14.4-0.6V32.8c3.4,0.2,6.1,0.5,7.6,1c3.3,1.1,7.1,3.2,10.5,5.3v3.4
			c-0.1,0-0.2,0-0.3,0C63,42.4,62.5,45.1,62.5,45.1z M7.6,38.6l2.1-3.9c0.4-0.8,1.3-1.4,2.3-1.5C14,33.2,18.1,33,23,32.8L22,43.4
			l-11.9-0.5c-1,0-1.9-0.6-2.4-1.5C7.2,40.6,7.2,39.5,7.6,38.6z"/>
	</g>
</g>
</svg>
