<?xml version="1.0" encoding="utf-8"?>
<!-- Generator: Adobe Illustrator 19.2.1, SVG Export Plug-In . SVG Version: 6.00 Build 0)  -->
<svg version="1.1" id="Capa_1" xmlns="http://www.w3.org/2000/svg" xmlns:xlink="http://www.w3.org/1999/xlink" x="0px" y="0px"
	 viewBox="0 0 99.3 99.3" style="enable-background:new 0 0 99.3 99.3;" xml:space="preserve">
<g>
	<g>
		<path d="M73.6,58.3c0,0.2,0,0.5,0,0.7c0.3,4,3.7,7.2,7.9,7.2c4,0,7.3-3,7.8-6.9c0-0.3,0.1-0.7,0.1-1c0-4.4-3.5-7.9-7.9-7.9
			C77.1,50.4,73.6,53.9,73.6,58.3z M86.4,57.6h-2.3c-0.1-0.2-0.2-0.5-0.3-0.7l1.6-1.6C86,56,86.3,56.8,86.4,57.6z M85.4,61.3
			l-1.6-1.6c0.1-0.2,0.2-0.4,0.3-0.7h2.3C86.3,59.9,85.9,60.7,85.4,61.3z M82.2,60.9c0.2-0.1,0.5-0.2,0.7-0.3l1.6,1.6
			c-0.7,0.5-1.4,0.8-2.3,0.9V60.9z M82.2,55.7l0-2.3c0.9,0.1,1.6,0.5,2.3,1L82.9,56C82.7,55.8,82.4,55.7,82.2,55.7L82.2,55.7z
			 M80.8,53.4l0,2.3c-0.2,0.1-0.5,0.2-0.7,0.3l-1.6-1.6C79.2,53.9,79.9,53.5,80.8,53.4L80.8,53.4z M78.5,62.3l1.6-1.6
			c0.2,0.1,0.4,0.2,0.7,0.3v2.3C80,63.1,79.2,62.8,78.5,62.3z M76.6,59h2.3c0.1,0.2,0.2,0.5,0.3,0.7l-1.6,1.6
			C77,60.7,76.7,59.9,76.6,59z M78.9,57.6h-2.3c0.1-0.9,0.4-1.6,0.9-2.3l1.6,1.6C79,57.2,78.9,57.4,78.9,57.6L78.9,57.6z"/>
		<path d="M16.6,58.3c0,0.2,0,0.5,0,0.7c0.3,4,3.7,7.2,7.9,7.2c4,0,7.3-3,7.8-6.9c0-0.3,0.1-0.7,0.1-1c0-4.4-3.5-7.9-7.9-7.9
			C20.2,50.4,16.6,53.9,16.6,58.3z M29.4,57.6h-2.3c-0.1-0.2-0.2-0.5-0.3-0.7l1.6-1.6C29,56,29.3,56.8,29.4,57.6z M28.5,61.3
			l-1.6-1.6c0.1-0.2,0.2-0.4,0.3-0.7h2.3C29.3,59.9,29,60.7,28.5,61.3z M25.2,60.9c0.2-0.1,0.5-0.2,0.7-0.3l1.6,1.6
			c-0.7,0.5-1.4,0.8-2.3,0.9V60.9z M25.2,55.7l0-2.3c0.9,0.1,1.6,0.5,2.3,1L25.9,56C25.7,55.8,25.5,55.7,25.2,55.7L25.2,55.7z
			 M23.8,53.4l0,2.3c-0.2,0.1-0.5,0.2-0.7,0.3l-1.6-1.6C22.2,53.9,23,53.5,23.8,53.4L23.8,53.4z M21.6,62.3l1.6-1.6
			c0.2,0.1,0.4,0.2,0.7,0.3v2.3C23,63.1,22.2,62.8,21.6,62.3z M19.6,59h2.3c0.1,0.2,0.2,0.5,0.3,0.7l-1.6,1.6
			C20.1,60.7,19.8,59.9,19.6,59z M21.9,57.6h-2.3c0.1-0.9,0.4-1.6,0.9-2.3l1.6,1.6C22.1,57.2,22,57.4,21.9,57.6L21.9,57.6z"/>
		<path d="M0,53.9l0,1.7c0,0.7,0.6,1.3,1.3,1.3H6l4.4,2.4h4.8c0-0.1,0-0.1,0-0.2c0-0.3,0-0.5,0-0.8c0-5.2,4.2-9.5,9.5-9.5
			c5.2,0,9.5,4.2,9.5,9.5c0,0.3,0,0.7-0.1,1h38.2c0-0.1,0-0.1,0-0.2c0-0.3,0-0.5,0-0.8c0-5.2,4.2-9.5,9.5-9.5c5.2,0,9.5,4.2,9.5,9.5
			c0,0.3,0,0.6-0.1,0.9l5.7-1.2c1-0.2,1.8-1,2-2l0.5-2.4c0.3-1.5-0.3-3.1-1.6-3.9l-1.7-2.2c-1.5-1.8-3.6-3-5.9-3.3l-16.8-1.8
			l-8.8-8.4c-0.7-0.6-1.5-1-2.4-1H35.7c-1.4,0-2.6,1.1-2.8,2.5l-0.6,6.9l-2.9,0v-7.8c0-0.7-0.6-1.3-1.3-1.3h-1
			c-0.7,0-1.3,0.6-1.3,1.3v7.8L4.3,42.3c-0.6,0-1.1,0.4-1.1,1l-0.4,9.4H1.3C0.6,52.6,0,53.2,0,53.9z M66.2,43l-14.7,0v-7.6h10.4
			c0.3,0,0.6,0.1,0.8,0.4l3.5,4.3C65.7,41.7,66.2,43,66.2,43L66.2,43z M37,43l0.3-6.6c0-0.6,0.5-1,1-1h9.4V43H37z"/>
	</g>
</g>
</svg>
