<?xml version="1.0" encoding="utf-8"?>
<!-- Generator: Adobe Illustrator 19.2.1, SVG Export Plug-In . SVG Version: 6.00 Build 0)  -->
<svg version="1.1" id="Capa_1" xmlns="http://www.w3.org/2000/svg" xmlns:xlink="http://www.w3.org/1999/xlink" x="0px" y="0px"
	 viewBox="0 0 99.1 99.1" style="enable-background:new 0 0 99.1 99.1;" xml:space="preserve">
<g>
	<g>
		<path d="M73.9,57.2c0.3,3.7,3.4,6.6,7.2,6.6c3.7,0,6.8-2.8,7.2-6.4c0-0.3,0.1-0.6,0.1-0.9c0-4-3.3-7.3-7.3-7.3
			c-4,0-7.3,3.3-7.3,7.3C73.8,56.8,73.8,57,73.9,57.2z M85.6,55.9h-2.1c-0.1-0.2-0.1-0.4-0.3-0.6l1.5-1.5
			C85.2,54.4,85.5,55.2,85.6,55.9z M84.7,59.3l-1.5-1.5c0.1-0.2,0.2-0.4,0.3-0.6h2.1C85.5,58,85.2,58.7,84.7,59.3z M81.7,61.1l0-2.1
			c0.2-0.1,0.4-0.1,0.6-0.3l1.5,1.5C83.2,60.7,82.5,61,81.7,61.1L81.7,61.1z M81.7,52.1c0.8,0.1,1.5,0.4,2.1,0.9l-1.5,1.5
			c-0.2-0.1-0.4-0.2-0.6-0.3V52.1z M80.5,54.1c-0.2,0.1-0.4,0.2-0.6,0.3l-1.5-1.5c0.6-0.5,1.3-0.8,2.1-0.9V54.1z M78.3,60.2l1.5-1.5
			c0.2,0.1,0.4,0.2,0.6,0.3v2.1C79.7,61,79,60.7,78.3,60.2z M76.6,57.2h2.1c0.1,0.2,0.2,0.4,0.3,0.6l-1.5,1.5
			C77,58.7,76.7,58,76.6,57.2z M78.7,55.9l-2.1,0c0.1-0.8,0.4-1.5,0.9-2.1l1.5,1.5C78.8,55.5,78.7,55.7,78.7,55.9L78.7,55.9z"/>
		<path d="M14.7,56.6c0,0.2,0,0.4,0,0.6c0.3,3.7,3.4,6.6,7.2,6.6c3.7,0,6.8-2.8,7.2-6.4c0-0.3,0.1-0.6,0.1-0.9c0-4-3.3-7.3-7.3-7.3
			C17.9,49.3,14.7,52.5,14.7,56.6z M26.5,55.9h-2.1c-0.1-0.2-0.1-0.4-0.3-0.6l1.5-1.5C26.1,54.4,26.4,55.2,26.5,55.9z M25.6,59.3
			l-1.5-1.5c0.1-0.2,0.2-0.4,0.3-0.6h2.1C26.4,58,26.1,58.7,25.6,59.3z M22.6,61.1l0-2.1c0.2-0.1,0.4-0.1,0.6-0.3l1.5,1.5
			C24.1,60.7,23.4,61,22.6,61.1L22.6,61.1z M22.6,52.1c0.8,0.1,1.5,0.4,2.1,0.9l-1.5,1.5c-0.2-0.1-0.4-0.2-0.6-0.3
			C22.6,54.1,22.6,52.1,22.6,52.1z M21.3,54.1c-0.2,0.1-0.4,0.2-0.6,0.3l-1.5-1.5c0.6-0.5,1.3-0.8,2.1-0.9V54.1z M19.2,60.2l1.5-1.5
			c0.2,0.1,0.4,0.2,0.6,0.3v2.1C20.5,61,19.8,60.7,19.2,60.2z M17.5,57.2h2.1c0.1,0.2,0.2,0.4,0.3,0.6l-1.5,1.5
			C17.9,58.7,17.6,58,17.5,57.2z M17.5,55.9c0.1-0.8,0.4-1.5,0.9-2.1l1.5,1.5c-0.1,0.2-0.2,0.4-0.3,0.6
			C19.5,55.9,17.5,55.9,17.5,55.9z"/>
		<path d="M0.1,52.2C0.6,54.7,1.8,57,3.6,59l0.7,0.8l10.2,0.4c-0.4-0.9-0.7-1.8-0.8-2.9c0-0.2,0-0.5,0-0.7c0-4.6,3.7-8.3,8.3-8.3
			c4.6,0,8.3,3.7,8.3,8.3c0,0.4,0,0.7-0.1,1c-0.1,1.1-0.5,2.2-1,3.1l0.6,0l44.5,0.4c-0.8-1.1-1.3-2.5-1.4-3.9c0-0.2,0-0.5,0-0.7
			c0-4.6,3.7-8.3,8.3-8.3c4.6,0,8.3,3.7,8.3,8.3c0,0.4,0,0.7-0.1,1c-0.2,1.4-0.7,2.6-1.4,3.7l0.1,0l4.7-0.8c3.4-0.6,6-3.3,6.3-6.8
			c0.2-2.4-0.1-4.6-2.9-6.5c-2.9-1.8-14.8-3.9-25.5-4.7c-7.3-3.5-14.4-6.3-16.8-7.2c-0.5-0.2-1.2-0.2-1.7,0.1l-0.8,0.4
			c-0.4,0.2-0.6,0.6-0.6,1.1c0,0.4,0.3,0.8,0.7,1l6.5,3.1c0,0-0.8,0.7-0.4,1.9l-15.8-0.7v-2.4c0-0.7-0.5-1.2-1.2-1.3l-0.7,0
			c-0.7,0-1.2,0.5-1.3,1.1l-0.2,2.1L27.8,41l-0.5-1.4c-0.3-0.8-1.1-1.3-1.9-1l-5.7,1.8c0,0-9.9,0.4-18.2,7.5
			C0.3,49-0.2,50.6,0.1,52.2z"/>
	</g>
</g>
</svg>
