<?xml version="1.0" encoding="utf-8"?>
<!-- Generator: Adobe Illustrator 19.2.1, SVG Export Plug-In . SVG Version: 6.00 Build 0)  -->
<svg version="1.1" id="Capa_1" xmlns="http://www.w3.org/2000/svg" xmlns:xlink="http://www.w3.org/1999/xlink" x="0px" y="0px"
	 viewBox="0 0 98.8 98.8" style="enable-background:new 0 0 98.8 98.8;" xml:space="preserve">
<g>
	<g>
		<path d="M69.8,53.8c0,0.2,0,0.4,0,0.6c0.3,3.5,3.2,6.3,6.8,6.3c3.5,0,6.4-2.6,6.8-6c0-0.3,0.1-0.6,0.1-0.9c0-3.8-3.1-6.9-6.9-6.9
			C72.9,46.9,69.8,50,69.8,53.8z M80.9,53.2h-2c-0.1-0.2-0.1-0.4-0.2-0.6l1.4-1.4C80.5,51.8,80.8,52.5,80.9,53.2z M80.1,56.4
			L78.7,55c0.1-0.2,0.2-0.4,0.2-0.6h2C80.8,55.2,80.5,55.8,80.1,56.4z M77.2,56.1c0.2-0.1,0.4-0.1,0.6-0.2l1.4,1.4
			c-0.6,0.4-1.2,0.7-2,0.8V56.1z M77.2,51.5l0-2c0.7,0.1,1.4,0.4,2,0.8l-1.4,1.4C77.7,51.7,77.5,51.6,77.2,51.5L77.2,51.5z M76,49.5
			l0,2c-0.2,0.1-0.4,0.1-0.6,0.3L74,50.4C74.6,49.9,75.3,49.6,76,49.5L76,49.5z M74.1,57.2l1.4-1.4c0.2,0.1,0.4,0.2,0.6,0.2v2
			C75.3,58,74.6,57.7,74.1,57.2z M72.4,54.4h2c0.1,0.2,0.1,0.4,0.3,0.6l-1.4,1.4C72.8,55.8,72.5,55.2,72.4,54.4z M74.4,53.2h-2
			c0.1-0.8,0.4-1.4,0.8-2l1.4,1.4C74.5,52.8,74.4,53,74.4,53.2L74.4,53.2z"/>
		<path d="M20.6,54.9c-0.2,1.6-0.9,3.1-1.8,4.3h49.4c0,0,0-5.1,0-5.3c0-2.4,1-4.6,2.7-6.1c-7.5-0.3-13.2,0.1-13.2,0.1L57,45.4
			c-0.3-0.1-0.7-0.2-1-0.2c-1.1-0.1-2.1,0.3-2.8,1.1l-1.1,1.4c-1.7,0-3.3-2.6-6.6-2.3L45.4,45c-0.2-0.6-0.7-0.9-1.3-0.9h-1.8v-1H43
			c0.6,0,1.1-0.5,1.1-1.1v-1.4c0-0.6-0.5-1.1-1.1-1.1H32.8l-16.2,7.2c2.4,1.5,4.1,4.1,4.1,7.2C20.7,54.1,20.7,54.5,20.6,54.9z"/>
		<path d="M85,54.9c0,0.1,0,0.1,0,0.2h1.9v3.4c0,0.4,0.3,0.7,0.7,0.7h10c0.4,0,0.7-0.3,0.7-0.7v-2.2c0-0.4-0.3-0.7-0.7-0.7h-4
			c0-2.4,5.2-1.3,5.2-2.4c-4-2.2-9.7-3.6-15.4-4.4c1.1,1.4,1.8,3.2,1.8,5.1C85.1,54.1,85,54.5,85,54.9z"/>
		<path d="M0,39.9l0,14.2h3.9c0-0.1,0-0.2,0-0.3c0-4.5,3.6-8.2,8-8.4l1.9-1.9c0.3-0.3,0.5-0.8,0.5-1.3v-2.4c0-1-0.8-1.8-1.8-1.8H1.8
			C0.8,38.1,0,38.9,0,39.9z"/>
		<path d="M5.1,53.8c0,0.2,0,0.4,0,0.6c0.3,3.5,3.2,6.3,6.8,6.3c3.5,0,6.4-2.6,6.8-6c0-0.3,0.1-0.6,0.1-0.9c0-3.8-3.1-6.9-6.9-6.9
			C8.2,46.9,5.1,50,5.1,53.8z M16.3,53.2h-2c-0.1-0.2-0.1-0.4-0.2-0.6l1.4-1.4C15.9,51.8,16.2,52.5,16.3,53.2z M15.4,56.4L14,55
			c0.1-0.2,0.2-0.4,0.2-0.6h2C16.2,55.2,15.9,55.8,15.4,56.4z M12.6,58.1v-2c0.2-0.1,0.4-0.1,0.6-0.2l1.4,1.4
			C14,57.7,13.3,58,12.6,58.1L12.6,58.1z M12.6,51.5L12.6,51.5l0-2c0.7,0.1,1.4,0.4,2,0.8l-1.4,1.4C13,51.7,12.8,51.6,12.6,51.5
			L12.6,51.5z M11.4,49.5l0,2c-0.2,0.1-0.4,0.1-0.6,0.3l-1.4-1.4C10,49.9,10.7,49.6,11.4,49.5L11.4,49.5z M9.4,57.2l1.4-1.4
			c0.2,0.1,0.4,0.2,0.6,0.2v2C10.7,58,10,57.7,9.4,57.2z M7.7,54.4h2c0.1,0.2,0.1,0.4,0.3,0.6l-1.4,1.4C8.1,55.8,7.9,55.2,7.7,54.4z
			 M9.7,53.2h-2c0.1-0.8,0.4-1.4,0.8-2l1.4,1.4C9.9,52.8,9.8,53,9.7,53.2L9.7,53.2z"/>
	</g>
</g>
</svg>
